<svg width="20" height="20" viewBox="0 0 20 20" fill="none" xmlns="http://www.w3.org/2000/svg">
<path d="M10 13.3333C9.89033 13.334 9.78161 13.3129 9.68008 13.2715C9.57855 13.23 9.4862 13.1689 9.40833 13.0917L4.40833 8.09166C4.25141 7.93474 4.16326 7.72191 4.16326 7.5C4.16326 7.27808 4.25141 7.06525 4.40833 6.90833C4.56525 6.75141 4.77808 6.66325 5 6.66325C5.22192 6.66325 5.43475 6.75141 5.59167 6.90833L10 11.325L14.4083 6.91666C14.5678 6.78014 14.7728 6.7088 14.9825 6.7169C15.1923 6.725 15.3912 6.81195 15.5396 6.96036C15.688 7.10877 15.775 7.30772 15.7831 7.51745C15.7912 7.72718 15.7199 7.93225 15.5833 8.09166L10.5833 13.0917C10.4281 13.2456 10.2186 13.3324 10 13.3333Z" fill="black"/>
</svg>
