<svg width="20" height="20" viewBox="0 0 20 20" fill="none" xmlns="http://www.w3.org/2000/svg">
<path d="M16.7858 15.6083L14.0833 12.9058C14.9074 11.8315 15.3533 10.5149 15.3516 9.16083C15.3516 7.50666 14.7074 5.95208 13.5379 4.78249C12.9643 4.20568 12.2819 3.74837 11.5304 3.43704C10.7788 3.12571 9.97301 2.96654 9.15953 2.96874C7.50578 2.96874 5.9512 3.61291 4.7812 4.78249C2.36745 7.19666 2.36745 11.125 4.7812 13.5392C5.3548 14.116 6.03712 14.5733 6.78867 14.8846C7.54022 15.196 8.34606 15.3551 9.15953 15.3529C10.532 15.3529 11.8324 14.9033 12.9049 14.0842L15.6074 16.7871C15.7699 16.9496 15.9833 17.0312 16.1966 17.0312C16.4099 17.0312 16.6233 16.9496 16.7858 16.7871C16.8632 16.7097 16.9246 16.6178 16.9665 16.5167C17.0084 16.4156 17.03 16.3072 17.03 16.1977C17.03 16.0882 17.0084 15.9798 16.9665 15.8787C16.9246 15.7776 16.8632 15.6857 16.7858 15.6083ZM5.95995 12.3608C4.19537 10.5962 4.19578 7.72541 5.95995 5.96083C6.37927 5.5394 6.87799 5.20531 7.42726 4.97787C7.97654 4.75044 8.56545 4.63418 9.15995 4.63583C9.75438 4.63419 10.3432 4.75046 10.8924 4.97789C11.4416 5.20533 11.9403 5.53941 12.3595 5.96083C12.7811 6.38008 13.1153 6.87878 13.3428 7.42806C13.5703 7.97734 13.6866 8.5663 13.6849 9.16083C13.6849 10.3696 13.2141 11.5058 12.3595 12.3608C11.5049 13.2158 10.3687 13.6858 9.15953 13.6858C7.9512 13.6858 6.81453 13.215 5.95953 12.3608H5.95995Z" fill="black"/>
</svg>
