<svg width="20" height="20" viewBox="0 0 20 20" fill="none" xmlns="http://www.w3.org/2000/svg">
<path fill-rule="evenodd" clip-rule="evenodd" d="M17.5001 4.99999C17.5001 4.77898 17.4123 4.56701 17.256 4.41073C17.0998 4.25445 16.8878 4.16666 16.6668 4.16666H3.33346C3.11244 4.16666 2.90048 4.25445 2.7442 4.41073C2.58792 4.56701 2.50012 4.77898 2.50012 4.99999C2.50012 5.221 2.58792 5.43297 2.7442 5.58925C2.90048 5.74553 3.11244 5.83332 3.33346 5.83332H16.6668C16.8878 5.83332 17.0998 5.74553 17.256 5.58925C17.4123 5.43297 17.5001 5.221 17.5001 4.99999ZM17.5001 9.99999C17.5001 9.77898 17.4123 9.56702 17.256 9.41074C17.0998 9.25445 16.8878 9.16666 16.6668 9.16666H8.33346C8.11244 9.16666 7.90048 9.25445 7.7442 9.41074C7.58792 9.56702 7.50012 9.77898 7.50012 9.99999C7.50012 10.221 7.58792 10.433 7.7442 10.5892C7.90048 10.7455 8.11244 10.8333 8.33346 10.8333H16.6668C16.8878 10.8333 17.0998 10.7455 17.256 10.5892C17.4123 10.433 17.5001 10.221 17.5001 9.99999ZM17.5001 15C17.5001 14.779 17.4123 14.567 17.256 14.4107C17.0998 14.2545 16.8878 14.1667 16.6668 14.1667H12.5001C12.2791 14.1667 12.0671 14.2545 11.9109 14.4107C11.7546 14.567 11.6668 14.779 11.6668 15C11.6668 15.221 11.7546 15.433 11.9109 15.5892C12.0671 15.7455 12.2791 15.8333 12.5001 15.8333H16.6668C16.8878 15.8333 17.0998 15.7455 17.256 15.5892C17.4123 15.433 17.5001 15.221 17.5001 15Z" fill="black"/>
</svg>
